<?xml version="1.0" encoding="UTF-8" standalone="no"?>
<!DOCTYPE svg PUBLIC "-//W3C//DTD SVG 1.1//EN"
 "http://www.w3.org/Graphics/SVG/1.1/DTD/svg11.dtd">
<!-- Generated by graphviz version 2.47.3 (0)
 -->
<!-- Title: snakemake_dag Pages: 1 -->
<svg width="1006pt" height="270pt"
 viewBox="0.00 0.00 1006.00 270.00" xmlns="http://www.w3.org/2000/svg" xmlns:xlink="http://www.w3.org/1999/xlink">
<g id="graph0" class="graph" transform="scale(1 1) rotate(0) translate(4 266)">
<title>snakemake_dag</title>
<polygon fill="white" stroke="transparent" points="-4,4 -4,-266 1002,-266 1002,4 -4,4"/>
<!-- 0 -->
<g id="node1" class="node">
<title>0</title>
<path fill="none" stroke="#d8a456" stroke-width="2" d="M507.5,-36C507.5,-36 477.5,-36 477.5,-36 471.5,-36 465.5,-30 465.5,-24 465.5,-24 465.5,-12 465.5,-12 465.5,-6 471.5,0 477.5,0 477.5,0 507.5,0 507.5,0 513.5,0 519.5,-6 519.5,-12 519.5,-12 519.5,-24 519.5,-24 519.5,-30 513.5,-36 507.5,-36"/>
<text text-anchor="middle" x="492.5" y="-15.5" font-family="sans" font-size="10.00">all</text>
</g>
<!-- 1 -->
<g id="node2" class="node">
<title>1</title>
<path fill="none" stroke="#78d856" stroke-width="2" d="M111,-110.5C111,-110.5 12,-110.5 12,-110.5 6,-110.5 0,-104.5 0,-98.5 0,-98.5 0,-86.5 0,-86.5 0,-80.5 6,-74.5 12,-74.5 12,-74.5 111,-74.5 111,-74.5 117,-74.5 123,-80.5 123,-86.5 123,-86.5 123,-98.5 123,-98.5 123,-104.5 117,-110.5 111,-110.5"/>
<text text-anchor="middle" x="61.5" y="-95.5" font-family="sans" font-size="10.00">step_1_fastqc</text>
<text text-anchor="middle" x="61.5" y="-84.5" font-family="sans" font-size="10.00">samples: SRR622461_1</text>
</g>
<!-- 1&#45;&gt;0 -->
<g id="edge1" class="edge">
<title>1&#45;&gt;0</title>
<path fill="none" stroke="grey" stroke-width="2" d="M120.57,-74.48C124.25,-73.59 127.92,-72.76 131.5,-72 248.32,-47.26 388.84,-30.22 454.81,-22.95"/>
<polygon fill="grey" stroke="grey" stroke-width="2" points="455.56,-26.39 465.12,-21.83 454.8,-19.43 455.56,-26.39"/>
</g>
<!-- 2 -->
<g id="node3" class="node">
<title>2</title>
<path fill="none" stroke="#78d856" stroke-width="2" d="M252,-110.5C252,-110.5 153,-110.5 153,-110.5 147,-110.5 141,-104.5 141,-98.5 141,-98.5 141,-86.5 141,-86.5 141,-80.5 147,-74.5 153,-74.5 153,-74.5 252,-74.5 252,-74.5 258,-74.5 264,-80.5 264,-86.5 264,-86.5 264,-98.5 264,-98.5 264,-104.5 258,-110.5 252,-110.5"/>
<text text-anchor="middle" x="202.5" y="-95.5" font-family="sans" font-size="10.00">step_1_fastqc</text>
<text text-anchor="middle" x="202.5" y="-84.5" font-family="sans" font-size="10.00">samples: SRR622461_2</text>
</g>
<!-- 2&#45;&gt;0 -->
<g id="edge2" class="edge">
<title>2&#45;&gt;0</title>
<path fill="none" stroke="grey" stroke-width="2" d="M264.29,-75.6C269.1,-74.38 273.88,-73.17 278.5,-72 340.56,-56.35 412.85,-38.54 455.53,-28.06"/>
<polygon fill="grey" stroke="grey" stroke-width="2" points="456.58,-31.4 465.46,-25.62 454.91,-24.6 456.58,-31.4"/>
</g>
<!-- 3 -->
<g id="node4" class="node">
<title>3</title>
<path fill="none" stroke="#d85656" stroke-width="2" d="M602,-262C602,-262 521,-262 521,-262 515,-262 509,-256 509,-250 509,-250 509,-238 509,-238 509,-232 515,-226 521,-226 521,-226 602,-226 602,-226 608,-226 614,-232 614,-238 614,-238 614,-250 614,-250 614,-256 608,-262 602,-262"/>
<text text-anchor="middle" x="561.5" y="-247" font-family="sans" font-size="10.00">step_2_trimmomatic</text>
<text text-anchor="middle" x="561.5" y="-236" font-family="sans" font-size="10.00">read: SRR622461</text>
</g>
<!-- 3&#45;&gt;0 -->
<g id="edge3" class="edge">
<title>3&#45;&gt;0</title>
<path fill="none" stroke="grey" stroke-width="2" d="M508.75,-239.43C442.87,-233.74 335.83,-220.03 311.5,-190 258.84,-125.01 389.18,-60.58 455.97,-32.99"/>
<polygon fill="grey" stroke="grey" stroke-width="2" points="457.38,-36.19 465.33,-29.19 454.75,-29.7 457.38,-36.19"/>
</g>
<!-- 4 -->
<g id="node5" class="node">
<title>4</title>
<path fill="none" stroke="#56a2d8" stroke-width="2" d="M428,-190C428,-190 333,-190 333,-190 327,-190 321,-184 321,-178 321,-178 321,-161 321,-161 321,-155 327,-149 333,-149 333,-149 428,-149 428,-149 434,-149 440,-155 440,-161 440,-161 440,-178 440,-178 440,-184 434,-190 428,-190"/>
<text text-anchor="middle" x="380.5" y="-178" font-family="sans" font-size="10.00">step_3_fastqc_trimmed</text>
<text text-anchor="middle" x="380.5" y="-167" font-family="sans" font-size="10.00">no: 1</text>
<text text-anchor="middle" x="380.5" y="-156" font-family="sans" font-size="10.00">pair: paired</text>
</g>
<!-- 3&#45;&gt;4 -->
<g id="edge10" class="edge">
<title>3&#45;&gt;4</title>
<path fill="none" stroke="grey" stroke-width="2" d="M518.61,-225.82C494.77,-216.27 464.78,-204.26 438.84,-193.87"/>
<polygon fill="grey" stroke="grey" stroke-width="2" points="440.07,-190.59 429.48,-190.12 437.46,-197.09 440.07,-190.59"/>
</g>
<!-- 5 -->
<g id="node6" class="node">
<title>5</title>
<path fill="none" stroke="#56a2d8" stroke-width="2" d="M565,-190C565,-190 470,-190 470,-190 464,-190 458,-184 458,-178 458,-178 458,-161 458,-161 458,-155 464,-149 470,-149 470,-149 565,-149 565,-149 571,-149 577,-155 577,-161 577,-161 577,-178 577,-178 577,-184 571,-190 565,-190"/>
<text text-anchor="middle" x="517.5" y="-178" font-family="sans" font-size="10.00">step_3_fastqc_trimmed</text>
<text text-anchor="middle" x="517.5" y="-167" font-family="sans" font-size="10.00">no: 1</text>
<text text-anchor="middle" x="517.5" y="-156" font-family="sans" font-size="10.00">pair: unpaired</text>
</g>
<!-- 3&#45;&gt;5 -->
<g id="edge11" class="edge">
<title>3&#45;&gt;5</title>
<path fill="none" stroke="grey" stroke-width="2" d="M551.07,-225.82C546.19,-217.78 540.25,-207.99 534.73,-198.89"/>
<polygon fill="grey" stroke="grey" stroke-width="2" points="537.59,-196.85 529.41,-190.12 531.6,-200.48 537.59,-196.85"/>
</g>
<!-- 6 -->
<g id="node7" class="node">
<title>6</title>
<path fill="none" stroke="#56a2d8" stroke-width="2" d="M628,-113C628,-113 533,-113 533,-113 527,-113 521,-107 521,-101 521,-101 521,-84 521,-84 521,-78 527,-72 533,-72 533,-72 628,-72 628,-72 634,-72 640,-78 640,-84 640,-84 640,-101 640,-101 640,-107 634,-113 628,-113"/>
<text text-anchor="middle" x="580.5" y="-101" font-family="sans" font-size="10.00">step_3_fastqc_trimmed</text>
<text text-anchor="middle" x="580.5" y="-90" font-family="sans" font-size="10.00">no: 2</text>
<text text-anchor="middle" x="580.5" y="-79" font-family="sans" font-size="10.00">pair: paired</text>
</g>
<!-- 3&#45;&gt;6 -->
<g id="edge12" class="edge">
<title>3&#45;&gt;6</title>
<path fill="none" stroke="grey" stroke-width="2" d="M571.45,-225.98C576.77,-215.89 582.77,-202.64 585.5,-190 590.25,-168 588.65,-142.56 586.05,-123.32"/>
<polygon fill="grey" stroke="grey" stroke-width="2" points="589.49,-122.7 584.53,-113.33 582.57,-123.75 589.49,-122.7"/>
</g>
<!-- 7 -->
<g id="node8" class="node">
<title>7</title>
<path fill="none" stroke="#56a2d8" stroke-width="2" d="M741,-190C741,-190 646,-190 646,-190 640,-190 634,-184 634,-178 634,-178 634,-161 634,-161 634,-155 640,-149 646,-149 646,-149 741,-149 741,-149 747,-149 753,-155 753,-161 753,-161 753,-178 753,-178 753,-184 747,-190 741,-190"/>
<text text-anchor="middle" x="693.5" y="-178" font-family="sans" font-size="10.00">step_3_fastqc_trimmed</text>
<text text-anchor="middle" x="693.5" y="-167" font-family="sans" font-size="10.00">no: 2</text>
<text text-anchor="middle" x="693.5" y="-156" font-family="sans" font-size="10.00">pair: unpaired</text>
</g>
<!-- 3&#45;&gt;7 -->
<g id="edge13" class="edge">
<title>3&#45;&gt;7</title>
<path fill="none" stroke="grey" stroke-width="2" d="M592.78,-225.82C609.55,-216.61 630.51,-205.1 648.95,-194.97"/>
<polygon fill="grey" stroke="grey" stroke-width="2" points="650.7,-198 657.78,-190.12 647.33,-191.87 650.7,-198"/>
</g>
<!-- 10 -->
<g id="node11" class="node">
<title>10</title>
<path fill="none" stroke="#56d8c9" stroke-width="2" d="M860,-187.5C860,-187.5 783,-187.5 783,-187.5 777,-187.5 771,-181.5 771,-175.5 771,-175.5 771,-163.5 771,-163.5 771,-157.5 777,-151.5 783,-151.5 783,-151.5 860,-151.5 860,-151.5 866,-151.5 872,-157.5 872,-163.5 872,-163.5 872,-175.5 872,-175.5 872,-181.5 866,-187.5 860,-187.5"/>
<text text-anchor="middle" x="821.5" y="-172.5" font-family="sans" font-size="10.00">step_5_alignment</text>
<text text-anchor="middle" x="821.5" y="-161.5" font-family="sans" font-size="10.00">ref_prefix: GRCh38</text>
</g>
<!-- 3&#45;&gt;10 -->
<g id="edge15" class="edge">
<title>3&#45;&gt;10</title>
<path fill="none" stroke="grey" stroke-width="2" d="M614.36,-229.84C652.59,-220.13 705.69,-206.24 761.17,-190.03"/>
<polygon fill="grey" stroke="grey" stroke-width="2" points="762.22,-193.37 770.82,-187.19 760.24,-186.65 762.22,-193.37"/>
</g>
<!-- 4&#45;&gt;0 -->
<g id="edge4" class="edge">
<title>4&#45;&gt;0</title>
<path fill="none" stroke="grey" stroke-width="2" d="M395.14,-148.96C415.22,-122.16 451.32,-73.97 473.47,-44.4"/>
<polygon fill="grey" stroke="grey" stroke-width="2" points="476.4,-46.33 479.59,-36.23 470.79,-42.14 476.4,-46.33"/>
</g>
<!-- 5&#45;&gt;0 -->
<g id="edge5" class="edge">
<title>5&#45;&gt;0</title>
<path fill="none" stroke="grey" stroke-width="2" d="M514.23,-148.96C509.85,-122.73 502.04,-76.03 497.07,-46.33"/>
<polygon fill="grey" stroke="grey" stroke-width="2" points="500.48,-45.52 495.38,-36.23 493.58,-46.67 500.48,-45.52"/>
</g>
<!-- 6&#45;&gt;0 -->
<g id="edge6" class="edge">
<title>6&#45;&gt;0</title>
<path fill="none" stroke="grey" stroke-width="2" d="M556.45,-71.69C545.56,-62.72 532.6,-52.04 521.2,-42.65"/>
<polygon fill="grey" stroke="grey" stroke-width="2" points="523.17,-39.74 513.23,-36.08 518.72,-45.14 523.17,-39.74"/>
</g>
<!-- 7&#45;&gt;0 -->
<g id="edge7" class="edge">
<title>7&#45;&gt;0</title>
<path fill="none" stroke="grey" stroke-width="2" d="M689.2,-148.7C683.49,-126.98 671.35,-92.49 648.5,-72 615.21,-42.15 564.4,-28.99 529.89,-23.27"/>
<polygon fill="grey" stroke="grey" stroke-width="2" points="530.15,-19.77 519.74,-21.72 529.1,-26.69 530.15,-19.77"/>
</g>
<!-- 8 -->
<g id="node9" class="node">
<title>8</title>
<path fill="none" stroke="#56d87b" stroke-width="2" stroke-dasharray="5,2" d="M986,-110.5C986,-110.5 821,-110.5 821,-110.5 815,-110.5 809,-104.5 809,-98.5 809,-98.5 809,-86.5 809,-86.5 809,-80.5 815,-74.5 821,-74.5 821,-74.5 986,-74.5 986,-74.5 992,-74.5 998,-80.5 998,-86.5 998,-86.5 998,-98.5 998,-98.5 998,-104.5 992,-110.5 986,-110.5"/>
<text text-anchor="middle" x="903.5" y="-95.5" font-family="sans" font-size="10.00">step_4_ref_index</text>
<text text-anchor="middle" x="903.5" y="-84.5" font-family="sans" font-size="10.00">ref_prefix: GRCh38_latest_genomic.fna</text>
</g>
<!-- 8&#45;&gt;0 -->
<g id="edge8" class="edge">
<title>8&#45;&gt;0</title>
<path fill="none" stroke="grey" stroke-width="2" d="M813.04,-74.46C808.46,-73.62 803.93,-72.8 799.5,-72 702.28,-54.5 587.53,-34.99 529.74,-25.25"/>
<polygon fill="grey" stroke="grey" stroke-width="2" points="530.07,-21.76 519.63,-23.55 528.91,-28.66 530.07,-21.76"/>
</g>
<!-- 9 -->
<g id="node10" class="node">
<title>9</title>
<path fill="none" stroke="#c6d856" stroke-width="2" d="M778.5,-110.5C778.5,-110.5 708.5,-110.5 708.5,-110.5 702.5,-110.5 696.5,-104.5 696.5,-98.5 696.5,-98.5 696.5,-86.5 696.5,-86.5 696.5,-80.5 702.5,-74.5 708.5,-74.5 708.5,-74.5 778.5,-74.5 778.5,-74.5 784.5,-74.5 790.5,-80.5 790.5,-86.5 790.5,-86.5 790.5,-98.5 790.5,-98.5 790.5,-104.5 784.5,-110.5 778.5,-110.5"/>
<text text-anchor="middle" x="743.5" y="-90" font-family="sans" font-size="10.00">step_6_freebayes</text>
</g>
<!-- 9&#45;&gt;0 -->
<g id="edge9" class="edge">
<title>9&#45;&gt;0</title>
<path fill="none" stroke="grey" stroke-width="2" d="M696.27,-76.21C691.62,-74.76 686.97,-73.34 682.5,-72 629.49,-56.14 567.72,-39.19 529.35,-28.84"/>
<polygon fill="grey" stroke="grey" stroke-width="2" points="530.22,-25.45 519.65,-26.23 528.4,-32.21 530.22,-25.45"/>
</g>
<!-- 10&#45;&gt;9 -->
<g id="edge14" class="edge">
<title>10&#45;&gt;9</title>
<path fill="none" stroke="grey" stroke-width="2" d="M803.8,-151.48C793.4,-141.48 780.09,-128.68 768.62,-117.66"/>
<polygon fill="grey" stroke="grey" stroke-width="2" points="771.03,-115.12 761.4,-110.71 766.18,-120.16 771.03,-115.12"/>
</g>
</g>
</svg>
